<?xml version="1.0" encoding="iso-8859-1"?>
<!-- Generator: Adobe Illustrator 22.0.1, SVG Export Plug-In . SVG Version: 6.00 Build 0)  -->
<svg xmlns="http://www.w3.org/2000/svg" xmlns:xlink="http://www.w3.org/1999/xlink" version="1.1" id="Layer_1" x="0px" y="0px" viewBox="0 0 64 64" style="enable-background:new 0 0 64 64;" xml:space="preserve" width="512" height="512">
<style type="text/css">
	.st0{fill:#52B8D9;}
	.st1{fill:#63312D;}
	.st2{fill:#82D9FF;}
	.st3{fill:#CAF4FF;}
	.st4{fill:#F8F3F3;}
	.st5{fill:#F9DD9D;}
	.st6{fill:#FFEECF;}
	.st7{fill:#F9A287;}
	.st8{fill:#FFC8BB;}
	.st9{fill:#DB785A;}
	.st10{fill:#D1D1D1;}
	.st11{fill:#BCBCBC;}
	.st12{fill:#EFC36A;}
	.st13{fill:#84DBFF;}
	.st14{fill:#E1DDDD;}
</style>
<g>
	<path class="st7" d="M48.113,9.475H8.055c-2.732,0-4.947,2.215-4.947,4.947v24.928c0,2.732,2.215,4.947,4.947,4.947h2.03v10.23   l14.073-10.23h23.955c2.732,0,4.947-2.215,4.947-4.947V14.421C53.059,11.689,50.845,9.475,48.113,9.475z"/>
	<g>
		<path class="st8" d="M5.108,41.349V14.925c0-1.905,1.545-3.45,3.45-3.45h41.554c0.85,0,1.637,0.234,2.335,0.611    c-0.836-1.548-2.453-2.611-4.335-2.611H8.055c-2.732,0-4.947,2.215-4.947,4.947v24.928c0,1.882,1.064,3.499,2.611,4.335    C5.342,42.986,5.108,42.199,5.108,41.349z"/>
	</g>
	<path class="st1" d="M10.085,55.025c-0.077,0-0.155-0.018-0.227-0.055c-0.168-0.085-0.273-0.257-0.273-0.445v-9.729h-1.53   c-3.003,0-5.446-2.443-5.446-5.447V14.421c0-3.003,2.443-5.447,5.446-5.447h40.058c3.004,0,5.447,2.443,5.447,5.447v24.928   c0,3.003-2.443,5.447-5.447,5.447H24.32L10.379,54.93C10.292,54.993,10.188,55.025,10.085,55.025z M8.055,9.975   c-2.452,0-4.446,1.995-4.446,4.447v24.928c0,2.452,1.994,4.447,4.446,4.447h2.03c0.276,0,0.5,0.224,0.5,0.5v9.248l13.279-9.652   c0.085-0.062,0.188-0.096,0.294-0.096h23.954c2.452,0,4.447-1.995,4.447-4.447V14.421c0-2.452-1.995-4.447-4.447-4.447H8.055z"/>
	<path class="st9" d="M55.945,9.475h-7.832c2.732,0,4.947,2.215,4.947,4.947v24.928c0,2.732-2.215,4.947-4.947,4.947h7.832   c2.732,0,4.947-2.215,4.947-4.947V14.421C60.892,11.689,58.677,9.475,55.945,9.475z"/>
	<path class="st1" d="M55.945,44.796h-7.833c-0.276,0-0.5-0.224-0.5-0.5s0.224-0.5,0.5-0.5c2.452,0,4.447-1.995,4.447-4.447V14.421   c0-2.452-1.995-4.447-4.447-4.447c-0.276,0-0.5-0.224-0.5-0.5s0.224-0.5,0.5-0.5h7.833c3.003,0,5.446,2.443,5.446,5.447v24.928   C61.392,42.353,58.948,44.796,55.945,44.796z M51.255,43.796h4.69c2.452,0,4.446-1.995,4.446-4.447V14.421   c0-2.452-1.994-4.447-4.446-4.447h-4.69c1.394,0.987,2.305,2.613,2.305,4.447v24.928C53.56,41.183,52.648,42.809,51.255,43.796z"/>
	<path class="st5" d="M42.513,28.217c-0.054,1.028-0.977,1.799-2.006,1.799l-4.709,0h-3.686c1.215,2.096,2.757,4.25,3.324,6.618   c0.237,0.991-0.105,2.062-0.958,2.62c-1.132,0.74-2.6,0.384-3.285-0.714l-0.342-0.548c-0.974-1.56-2.254-2.907-3.763-3.958   l-4.684-3.263V16.052l1.694-0.614c1.151-0.418,2.367-0.631,3.592-0.631h7.414l3.348,0c1.029,0,1.952,0.771,2.006,1.799   c0.057,1.096-0.815,2.003-1.899,2.003l0.572,0c1.03,0,1.952,0.771,2.006,1.799c0.057,1.096-0.815,2.003-1.899,2.003h0.572   c1.029,0,1.952,0.771,2.006,1.799c0.057,1.096-0.815,2.004-1.899,2.004h0.698C41.698,26.213,42.57,27.12,42.513,28.217z"/>
	<path class="st1" d="M33.174,40.146c-0.955,0-1.87-0.483-2.406-1.341l-0.342-0.548c-0.943-1.511-2.163-2.794-3.626-3.813   l-4.684-3.263l0.572-0.82l4.684,3.263c1.574,1.097,2.887,2.478,3.901,4.104l0.342,0.548c0.484,0.775,1.445,1.079,2.287,0.721   c0.816-0.347,1.271-1.227,1.081-2.093c-0.405-1.854-1.474-3.607-2.506-5.303c-0.272-0.448-0.543-0.892-0.799-1.334   c-0.09-0.154-0.09-0.345-0.001-0.5c0.09-0.155,0.255-0.25,0.434-0.25h8.503c0.772,0,1.401-0.628,1.401-1.401   c0-0.773-0.629-1.401-1.401-1.401h-2.826v-1h2.826c1.324,0,2.401,1.077,2.401,2.401c0,1.324-1.077,2.401-2.401,2.401h-7.625   c0.113,0.188,0.228,0.375,0.343,0.564c1.075,1.766,2.187,3.593,2.628,5.609c0.294,1.335-0.407,2.693-1.667,3.228   C33.928,40.072,33.548,40.146,33.174,40.146z"/>
	<path class="st1" d="M39.916,26.713H37.09v-1h2.826c0.772,0,1.401-0.628,1.401-1.401c0-0.772-0.629-1.401-1.401-1.401H37.09v-1   h2.826c1.324,0,2.401,1.077,2.401,2.401C42.317,25.636,41.24,26.713,39.916,26.713z"/>
	<path class="st1" d="M39.236,22.911h-2.825v-1h2.825c0.772,0,1.401-0.628,1.401-1.401s-0.629-1.401-1.401-1.401h-2.825v-1h2.825   c1.324,0,2.401,1.077,2.401,2.401S40.561,22.911,39.236,22.911z"/>
	<path class="st1" d="M38.558,19.108h-2.826v-1h2.826c0.772,0,1.401-0.628,1.401-1.401c0-0.773-0.629-1.401-1.401-1.401H27.552   c-1.08,0-2.142,0.187-3.156,0.555l-1.822,0.661l-0.342-0.94l1.822-0.661c1.125-0.408,2.302-0.614,3.498-0.614h11.006   c1.324,0,2.401,1.077,2.401,2.401C40.959,18.031,39.882,19.108,38.558,19.108z"/>
	<rect x="15.911" y="15.146" class="st4" width="6.492" height="16.002"/>
	<path class="st1" d="M22.402,31.648h-6.491c-0.276,0-0.5-0.224-0.5-0.5V15.146c0-0.276,0.224-0.5,0.5-0.5h6.491   c0.276,0,0.5,0.224,0.5,0.5v16.002C22.902,31.424,22.679,31.648,22.402,31.648z M16.411,30.648h5.491V15.646h-5.491V30.648z"/>
</g>
</svg>
