<svg height="504pt" viewBox="-44 0 504 504.576" width="504pt" xmlns="http://www.w3.org/2000/svg"><path d="m208.289062 504.574219-103.359374-120.574219h-72.640626c-17.675781 0-32-14.328125-32-32v-320c0-17.671875 14.324219-32 32-32h352c17.671876 0 32 14.328125 32 32v320c0 17.671875-14.328124 32-32 32h-72.640624zm0 0" fill="#ffdc36"/><g fill="#57565c"><path d="m112.289062 272h32v48h-32zm0 0"/><path d="m272.289062 272h32v48h-32zm0 0"/><path d="m192.289062 48h32v64h-32zm0 0"/></g><path d="m327.921875 208h-239.265625l44.800781-112h149.664063zm0 0" fill="#fff"/><path d="m352.289062 288h-288v-64c0-26.507812 21.488282-48 48-48h192c26.507813 0 48 21.492188 48 48zm0 0" fill="#ff7043"/><path d="m112.289062 224h32v32h-32zm0 0" fill="#fff"/><path d="m272.289062 224h32v32h-32zm0 0" fill="#fff"/></svg>