<?xml version="1.0" encoding="iso-8859-1"?>
<!-- Generator: Adobe Illustrator 22.0.1, SVG Export Plug-In . SVG Version: 6.00 Build 0)  -->
<svg xmlns="http://www.w3.org/2000/svg" xmlns:xlink="http://www.w3.org/1999/xlink" version="1.1" id="Layer_1" x="0px" y="0px" viewBox="0 0 64 64" style="enable-background:new 0 0 64 64;" xml:space="preserve" width="512" height="512">
<style type="text/css">
	.st0{fill:#52B8D9;}
	.st1{fill:#63312D;}
	.st2{fill:#82D9FF;}
	.st3{fill:#CAF4FF;}
	.st4{fill:#F8F3F3;}
	.st5{fill:#F9DD9D;}
	.st6{fill:#FFEECF;}
	.st7{fill:#F9A287;}
	.st8{fill:#FFC8BB;}
	.st9{fill:#DB785A;}
	.st10{fill:#D1D1D1;}
	.st11{fill:#BCBCBC;}
	.st12{fill:#EFC36A;}
	.st13{fill:#84DBFF;}
	.st14{fill:#E1DDDD;}
</style>
<g>
	<path class="st4" d="M44.411,11.218H7.454c-2.52,0-4.564,2.043-4.564,4.564V38.78c0,2.521,2.043,4.564,4.564,4.564h1.873v9.438   l12.983-9.438h22.101c2.521,0,4.564-2.043,4.564-4.564V15.782C48.975,13.261,46.931,11.218,44.411,11.218z"/>
	<path class="st1" d="M9.327,53.282c-0.078,0-0.155-0.018-0.227-0.055c-0.167-0.085-0.273-0.257-0.273-0.445v-8.938H7.454   c-2.792,0-5.064-2.271-5.064-5.064V15.782c0-2.792,2.271-5.063,5.064-5.063h36.958c2.792,0,5.063,2.271,5.063,5.063V38.78   c0,2.792-2.271,5.064-5.063,5.064H22.473L9.621,53.186C9.534,53.25,9.43,53.282,9.327,53.282z M7.454,11.718   c-2.241,0-4.064,1.823-4.064,4.063V38.78c0,2.241,1.823,4.064,4.064,4.064h1.873c0.276,0,0.5,0.224,0.5,0.5V51.8l12.189-8.86   c0.085-0.062,0.188-0.096,0.294-0.096h22.101c2.24,0,4.063-1.823,4.063-4.064V15.782c0-2.241-1.823-4.063-4.063-4.063H7.454z"/>
	<path class="st10" d="M51.637,11.218h-7.226c2.521,0,4.564,2.043,4.564,4.564V38.78c0,2.521-2.043,4.564-4.564,4.564h7.226   c2.521,0,4.564-2.043,4.564-4.564V15.782C56.201,13.261,54.157,11.218,51.637,11.218z"/>
	<path class="st1" d="M51.637,43.844h-7.226c-0.276,0-0.5-0.224-0.5-0.5s0.224-0.5,0.5-0.5c2.24,0,4.063-1.823,4.063-4.064V15.782   c0-2.241-1.823-4.063-4.063-4.063c-0.276,0-0.5-0.224-0.5-0.5s0.224-0.5,0.5-0.5h7.226c2.792,0,5.063,2.271,5.063,5.063V38.78   C56.7,41.573,54.429,43.844,51.637,43.844z M47.429,42.844h4.208c2.24,0,4.063-1.823,4.063-4.064V15.782   c0-2.241-1.823-4.063-4.063-4.063h-4.208c1.241,0.924,2.046,2.401,2.046,4.063V38.78C49.475,40.442,48.67,41.92,47.429,42.844z"/>
	<path class="st5" d="M61.107,38.009c-0.054-1.028-0.977-1.799-2.006-1.799l-4.709,0h-3.686c1.215-2.096,2.757-4.25,3.324-6.618   c0.237-0.991-0.105-2.062-0.958-2.62c-1.132-0.74-2.6-0.384-3.285,0.714l-0.342,0.548c-0.974,1.56-2.254,2.907-3.763,3.958   l-4.684,3.263v14.719l1.694,0.614c1.151,0.418,2.367,0.631,3.592,0.631h7.414h3.348c1.029,0,1.952-0.771,2.006-1.799   c0.057-1.096-0.815-2.003-1.899-2.003l0.572,0c1.03,0,1.952-0.771,2.006-1.799c0.057-1.096-0.815-2.003-1.899-2.003h0.572   c1.029,0,1.952-0.771,2.006-1.799c0.057-1.096-0.815-2.004-1.899-2.004h0.698C60.293,40.013,61.165,39.106,61.107,38.009z"/>
	<path class="st1" d="M59.209,40.513h-2.826v-1h2.826c0.772,0,1.401-0.628,1.401-1.401s-0.629-1.401-1.401-1.401h-8.503   c-0.179,0-0.344-0.096-0.434-0.25c-0.089-0.155-0.089-0.346,0.001-0.5c0.255-0.44,0.525-0.883,0.797-1.331   c1.033-1.697,2.102-3.451,2.508-5.306c0.189-0.866-0.266-1.747-1.081-2.094c-0.845-0.355-1.804-0.052-2.287,0.722l-0.342,0.548   c-1.017,1.627-2.329,3.008-3.901,4.104l-4.684,3.263l-0.572-0.82l4.684-3.263c1.462-1.018,2.682-2.301,3.626-3.813l0.342-0.547   c0.746-1.196,2.228-1.663,3.525-1.113c1.259,0.535,1.96,1.892,1.667,3.228c-0.442,2.018-1.555,3.845-2.63,5.612   c-0.114,0.188-0.229,0.375-0.341,0.562h7.625c1.324,0,2.401,1.077,2.401,2.401S60.533,40.513,59.209,40.513z"/>
	<path class="st1" d="M58.511,44.315h-2.826v-1h2.826c0.772,0,1.401-0.628,1.401-1.401c0-0.772-0.629-1.401-1.401-1.401h-2.826v-1   h2.826c1.324,0,2.401,1.077,2.401,2.401C60.912,43.238,59.835,44.315,58.511,44.315z"/>
	<path class="st1" d="M57.831,48.118h-2.825v-1h2.825c0.772,0,1.401-0.628,1.401-1.401c0-0.773-0.629-1.401-1.401-1.401h-2.825v-1   h2.825c1.324,0,2.401,1.077,2.401,2.401C60.232,47.041,59.155,48.118,57.831,48.118z"/>
	<path class="st1" d="M57.152,51.92H46.146c-1.196,0-2.374-0.207-3.499-0.615l-1.821-0.661l0.342-0.94l1.821,0.661   c1.015,0.369,2.077,0.555,3.157,0.555h11.006c0.772,0,1.4-0.628,1.4-1.401s-0.628-1.401-1.4-1.401h-2.826v-1h2.826   c1.323,0,2.4,1.077,2.4,2.401S58.476,51.92,57.152,51.92z"/>
	<rect x="34.505" y="35.078" class="st13" width="6.492" height="16.002"/>
	<path class="st1" d="M40.997,51.581h-6.492c-0.276,0-0.5-0.224-0.5-0.5V35.078c0-0.276,0.224-0.5,0.5-0.5h6.492   c0.276,0,0.5,0.224,0.5,0.5v16.002C41.497,51.357,41.273,51.581,40.997,51.581z M35.005,50.581h5.492V35.578h-5.492V50.581z"/>
	<circle class="st5" cx="26.102" cy="27.118" r="10.042"/>
	<path class="st6" d="M18.06,27.118c0-5.208,3.965-9.489,9.042-9.991c-0.329-0.033-0.662-0.05-1-0.05   c-5.546,0-10.042,4.496-10.042,10.042c0,5.546,4.496,10.042,10.042,10.042c0.338,0,0.671-0.018,1-0.05   C22.026,36.607,18.06,32.326,18.06,27.118z"/>
	<path class="st1" d="M26.102,37.66c-5.813,0-10.542-4.729-10.542-10.542s4.729-10.542,10.542-10.542   c5.813,0,10.542,4.729,10.542,10.542S31.915,37.66,26.102,37.66z M26.102,17.577c-5.261,0-9.542,4.28-9.542,9.542   s4.28,9.542,9.542,9.542s9.542-4.28,9.542-9.542S31.363,17.577,26.102,17.577z"/>
	<path class="st7" d="M24.31,31.866c-0.333,0-0.667-0.124-0.926-0.371l-4.126-3.939l1.852-1.939l3.195,3.05l6.197-5.979l1.862,1.93   l-7.124,6.872C24.981,31.741,24.646,31.866,24.31,31.866z"/>
	<path class="st1" d="M24.31,32.366c-0.476,0-0.927-0.181-1.271-0.509l-4.126-3.939c-0.096-0.092-0.151-0.218-0.155-0.35   c-0.003-0.133,0.047-0.261,0.138-0.357l1.852-1.939c0.192-0.2,0.508-0.207,0.707-0.017l2.848,2.719l5.853-5.646   c0.095-0.091,0.231-0.139,0.356-0.14c0.133,0.002,0.259,0.058,0.351,0.153l1.862,1.93c0.192,0.199,0.186,0.515-0.013,0.707   l-7.124,6.873C25.243,32.183,24.789,32.366,24.31,32.366z M19.965,27.54l3.764,3.594c0.316,0.302,0.851,0.301,1.165-0.003   l6.763-6.525l-1.167-1.21l-5.838,5.631c-0.192,0.186-0.499,0.187-0.692,0.002l-2.833-2.705L19.965,27.54z"/>
</g>
</svg>
