<?xml version="1.0" encoding="UTF-8"?>
<svg width="64px" height="64px" viewBox="0 0 64 64" version="1.1" xmlns="http://www.w3.org/2000/svg" xmlns:xlink="http://www.w3.org/1999/xlink">
    <!-- Generator: Sketch 47.1 (45422) - http://www.bohemiancoding.com/sketch -->
    <title>Shape</title>
    <desc>Created with Sketch.</desc>
    <defs></defs>
    <g id="Page-1" stroke="none" stroke-width="1" fill="none" fill-rule="evenodd">
        <g id="Home-Banking-WebApp" transform="translate(-63.000000, -117.000000)" fill-rule="nonzero" fill="#FFFFFF">
            <g id="TopBar">
                <g id="date-and-welcome" transform="translate(63.000000, 117.000000)">
                    <path d="M32,0.260579699 C14.4829429,0.260579699 0.249999773,14.4934999 0.249999773,32.0105873 C0.249999773,49.527667 14.4829429,63.7605873 32,63.7605873 C49.5170722,63.7605873 63.75,49.527667 63.75,32.0105873 C63.75,14.4934999 49.5170646,0.260587258 32,0.260587258 L32,0.260579699 Z M32,3.28438922 C47.8828619,3.28438922 60.7261905,16.1277178 60.7261905,32.0105873 C60.7261905,47.8934492 47.8828695,60.7367777 32,60.7367777 C16.1171457,60.7367777 3.27380952,47.8934492 3.27380952,32.0105873 C3.27380952,16.1277254 16.1171457,3.28439678 32,3.28439678 L32,3.28438922 Z M32,8.57605589 C31.164975,8.57605589 30.4880952,9.25293565 30.4880952,10.0879607 L30.4880952,32.0105873 C30.4880952,32.4280998 30.6633401,32.8001039 30.936942,33.0736831 C35.7467117,37.840492 40.5690151,42.6977129 45.3709077,47.5076111 C45.9613595,48.0980855 46.9065721,48.0980855 47.4970238,47.5076111 C48.0874831,46.9171367 48.0874755,45.9718938 47.4970238,45.381495 L33.5119048,31.3963759 L33.5119048,10.0879607 C33.5119048,9.25293565 32.835025,8.57605589 32,8.57605589 Z" id="Shape"></path>
                </g>
            </g>
        </g>
    </g>
</svg>