<svg height="479pt" viewBox="0 0 479 479.97737" width="479pt" xmlns="http://www.w3.org/2000/svg"><path d="m360.441406 247.976562c-11.707031-.03125-23.339844 1.828126-34.457031 5.503907-42.742187 13.679687-73.105469 51.667969-77.023437 96.375-.351563 3.363281-.523438 6.742187-.519532 10.121093.078125 61.824219 50.175782 111.921876 112 112 61.855469 0 112-50.144531 112-112 0-61.855468-50.144531-112-112-112zm0 0" fill="#78b9eb"/><g fill="#1a6fb0"><path d="m408.441406 250.058594v-122.082032h64c3.722656-.019531 6.933594-2.605468 7.757813-6.234374.820312-3.628907-.96875-7.34375-4.316407-8.964844l-232-112c-2.175781-1.035156-4.703124-1.035156-6.882812 0l-232 112c-3.347656 1.621094-5.136719 5.335937-4.3125 8.964844.820312 3.628906 4.035156 6.214843 7.753906 6.234374h64v344c0 4.417969 3.582032 8 8 8h320c4.417969 0 8-3.582031 8-8v-2.078124c43.730469-19.058594 72.003906-62.222657 72.003906-109.921876 0-47.699218-28.273437-90.863281-72.003906-109.917968zm-168-233.203125 197.039063 95.121093h-394.078125zm60.480469 239.121093c-18.496094 10.5625-33.851563 25.863282-44.480469 44.320313-2.210937 3.769531-4.1875 7.667969-5.917968 11.679687h-2.082032v-64h69.28125c-5.808594 2.210938-11.425781 4.886719-16.800781 8zm19.519531-24h-72v-64h72zm-88 0h-72v-64h72zm-72 16h72v64h-72zm-72 216v-336h304v116.480469c-10.410156-2.957031-21.175781-4.464843-32-4.480469-5.355468-.03125-10.703125.339844-16 1.121094-2.71875.320313-5.359375.71875-8 1.28125v-82.402344c0-4.417968-3.582031-8-8-8h-176c-4.417968 0-8 3.582032-8 8v160c0 4.417969 3.582032 8 8 8h92.480469c-.71875 2.640626-1.359375 5.28125-2 8-1.640625 7.894532-2.472656 15.9375-2.480469 24 .054688 42.984376 23.09375 82.652344 60.402344 104zm168-104c-.007812-8.082031.929688-16.136718 2.800782-24 9.808593-41.105468 43.457031-72.222656 85.199218-78.800781 5.296875-.800781 10.644532-1.203125 16-1.199219 57.4375 0 104 46.5625 104 104s-46.5625 104-104 104-104-46.5625-104-104zm0 0"/><path d="m440.441406 351.976562v16h-72v64h-16v-64h-72v-16h72v-72h16v72zm0 0"/></g></svg>